<?xml version="1.0" standalone="no"?><!DOCTYPE svg PUBLIC "-//W3C//DTD SVG 1.1//EN" "http://www.w3.org/Graphics/SVG/1.1/DTD/svg11.dtd"><svg t="1637683154772" class="icon" viewBox="0 0 1024 1024" version="1.1" xmlns="http://www.w3.org/2000/svg" p-id="2691" width="32" height="32" xmlns:xlink="http://www.w3.org/1999/xlink"><defs><style type="text/css"></style></defs><path d="M468.496 64c16.96 0 37.28 3.36 54.224 6.736 16.944 3.36 33.872 10.112 47.44 16.848 13.552 6.72 27.104 13.472 37.28 23.568 10.144 10.112 20.32 16.848 27.088 23.584 16.96 20.208 27.104 40.416 37.28 64 6.768 23.584 13.552 43.792 16.944 64 3.376 23.584 3.376 47.152 3.376 70.736l10.176 10.112c3.376 3.36 3.376 10.096 6.768 16.832 0 6.736 3.392 13.472 0 23.584 0 13.472-3.392 23.584-10.16 30.32-3.392 6.72-10.16 13.472-13.552 16.832-6.784 3.36-10.16 6.736-16.944 10.112-3.392 10.112-6.784 20.208-10.16 26.944-3.392 6.736-6.784 16.848-10.176 23.584-3.376 6.72-10.16 13.472-13.552 16.832-3.392 3.376-10.16 6.752-16.944 13.488-3.376 3.36-10.16 6.72-13.552 10.096-3.376 3.36-6.768 6.736-10.16 13.472-3.392 3.36-3.392 10.112-6.784 16.848 0 10.096-3.376 16.848 0 26.944 0 10.112 3.392 16.848 6.784 26.944 3.392 10.112 13.552 16.848 20.32 26.96 9.056 4.48 18.096 8.992 28.16 13.488A223.344 223.344 0 0 0 576 816c0 49.024 15.76 94.384 42.464 131.264l-21.2 2.624c-27.104 3.36-50.832 6.736-77.936 6.736-23.712 0-47.44 3.376-64.384 3.376-16.944 0-40.656 0-64.368-3.36-23.728-3.376-47.44-3.376-74.56-6.752-23.712-3.36-50.816-6.72-74.544-10.096-23.712-3.36-47.424-6.736-67.76-10.112-20.32-3.36-37.28-6.72-50.832-10.096-13.552-3.36-23.712-6.736-27.104-10.112-6.768-3.36-10.16-20.208-13.552-43.792-3.392-23.568-3.392-57.264 3.392-94.304 3.392-20.224 13.552-37.056 30.496-50.528 16.944-10.112 33.888-20.224 54.208-26.96 20.32-6.72 40.672-13.472 64.384-16.832 20.32-6.736 40.656-13.472 57.6-23.584 16.944-6.72 27.104-13.472 33.888-20.208 6.768-6.736 13.552-13.472 16.944-20.208 3.008-5.984 3.344-11.984 3.376-20.32v-30.208c0-13.472-6.768-23.584-16.928-33.68-10.176-6.736-20.336-16.848-30.496-23.584-6.784-3.36-10.176-10.112-13.552-16.848a163.712 163.712 0 0 1-10.176-23.568c-3.392-10.112-6.768-16.848-10.16-26.96-3.392 0-10.16-3.36-13.552-6.72l-13.552-13.488c-3.392-6.72-6.784-13.472-10.176-23.568-3.376-10.112-3.376-20.224-3.376-26.96 0-6.72 3.376-13.472 6.768-20.208l10.16-20.208c0-23.584 0-43.792 3.392-67.36 6.784-16.848 10.176-37.056 16.96-57.28 6.768-20.208 16.928-40.416 30.48-57.248 13.552-16.848 23.728-30.32 40.656-40.432 13.552-10.096 30.496-20.208 44.048-23.568 13.568-6.736 30.496-10.112 47.44-13.472C441.408 64 454.944 64 468.496 64z m17.984 624h-48.432c-6.912 6.592-13.824 9.888-17.28 16.48-3.472 3.28-6.928 9.872-10.4 13.168-3.456 3.296-3.456 6.592-3.456 9.888 3.472 6.576 6.928 9.872 10.4 16.464l10.368 9.888c0 3.296-3.456 9.872-6.928 19.76a400 400 0 0 0-10.368 32.944c-3.472 9.872-6.928 23.04-6.928 32.944C400 849.408 400 856 400 862.56c0 3.312 3.456 6.608 6.912 13.184 6.928 6.592 10.4 9.888 20.768 16.48 6.912 6.576 13.84 9.872 20.752 13.168 6.912 3.296 13.84 6.592 17.296 6.592 3.456 0 10.384-3.296 17.296-6.592 6.928-3.296 13.84-9.872 20.752-13.168 6.928-6.592 13.84-9.888 17.312-16.48 3.456 0 6.912-6.576 6.912-9.872 0-3.296 0-9.888-3.456-19.776-3.456-9.872-3.456-19.76-6.928-32.928-3.456-9.888-3.456-23.072-6.912-32.96-3.456-9.872-3.456-16.464-6.928-23.04a51.52 51.52 0 0 0 20.768-26.368c0-3.28 0-6.576-3.456-13.168-3.472-3.296-6.928-9.888-13.84-13.184-6.928-3.28-13.84-9.872-20.768-16.464zM800 656c88.384 0 160 71.616 160 160s-71.616 160-160 160-160-71.616-160-160 71.616-160 160-160z m78.72 120.736c13.776-18.48-19.264-35.808-32.848-17.424l-63.392 85.504-39.936-27.568c-8.224-5.76-21.248-1.152-26.032 6.224-5.76 8.8-1.44 17.904 6.784 23.648 18.016 12.448 36 24.896 54.112 37.344 8.608 5.92 20.768 0.864 26.032-6.24 25.088-33.792 50.176-67.68 75.264-101.488z" fill="#53A4FC" p-id="2692"></path></svg>