<?xml version="1.0" standalone="no"?><!DOCTYPE svg PUBLIC "-//W3C//DTD SVG 1.1//EN" "http://www.w3.org/Graphics/SVG/1.1/DTD/svg11.dtd"><svg t="1637375809091" class="icon" viewBox="0 0 1024 1024" version="1.1" xmlns="http://www.w3.org/2000/svg" p-id="1185" width="32" height="32" xmlns:xlink="http://www.w3.org/1999/xlink"><defs><style type="text/css"></style></defs><path d="M76.8 480L499.2 57.6c6.4-6.4 19.2-6.4 25.6 0L947.2 480c6.4 6.4 12.8 6.4 19.2 6.4 6.4 0 12.8 0 19.2-6.4 12.8-12.8 12.8-25.6 0-38.4L556.8 19.2c-25.6-25.6-76.8-25.6-102.4 0L32 441.6c-6.4 6.4-6.4 25.6 0 38.4s32 12.8 44.8 0zM32 672h108.8v345.6H192V672h108.8v-38.4H32zM499.2 627.2c-57.6 0-102.4 19.2-134.4 57.6-32 38.4-51.2 89.6-51.2 147.2 0 57.6 19.2 102.4 51.2 140.8 32 32 76.8 51.2 128 51.2 57.6 0 102.4-19.2 134.4-57.6s51.2-89.6 51.2-147.2c0-57.6-19.2-102.4-51.2-140.8-25.6-38.4-70.4-51.2-128-51.2z m96 313.6c-25.6 25.6-57.6 38.4-96 38.4s-70.4-12.8-96-44.8c-25.6-25.6-38.4-64-38.4-115.2 0-44.8 12.8-83.2 38.4-115.2 25.6-25.6 57.6-44.8 96-44.8s70.4 12.8 96 38.4c25.6 25.6 32 64 32 115.2 0 64-12.8 96-32 128zM960 659.2c-25.6-19.2-57.6-32-96-32H755.2v384h51.2V864h51.2c38.4 0 76.8-12.8 102.4-32 25.6-25.6 38.4-51.2 38.4-89.6 0-32-12.8-64-38.4-83.2z m-38.4 147.2c-12.8 12.8-38.4 19.2-70.4 19.2h-44.8V672h51.2c57.6 0 89.6 25.6 89.6 76.8 0 25.6-12.8 44.8-25.6 57.6z" p-id="1186"></path></svg>